<?xml version="1.0" standalone="no"?>
<!DOCTYPE svg PUBLIC "-//W3C//DTD SVG 20010904//EN"
 "http://www.w3.org/TR/2001/REC-SVG-20010904/DTD/svg10.dtd">
<svg version="1.0" xmlns="http://www.w3.org/2000/svg"
 width="200.000000pt" height="200.000000pt" viewBox="0 0 200.000000 200.000000"
 preserveAspectRatio="xMidYMid meet">
<metadata>
Created by potrace 1.11, written by Peter Selinger 2001-2013
</metadata>
<g transform="translate(0.000000,200.000000) scale(0.100000,-0.100000)"
fill="#000000" stroke="none">
<path d="M818 1604 c-47 -20 -52 -35 -27 -85 12 -22 20 -41 18 -42 -2 -2 -21
-11 -43 -20 l-39 -18 6 -53 c5 -52 4 -55 -33 -91 -46 -45 -94 -138 -116 -225
-23 -90 -16 -256 14 -322 30 -67 69 -116 112 -138 33 -17 38 -24 44 -66 3 -26
6 -105 6 -176 0 -128 0 -129 28 -154 85 -78 83 -72 48 -156 l-24 -58 215 0
c201 0 215 1 208 18 -4 9 -9 33 -12 52 -6 39 15 67 42 56 16 -6 40 -54 50 -98
5 -26 9 -28 55 -28 48 0 50 1 50 28 0 15 -13 55 -30 90 -23 48 -27 68 -20 82
6 10 10 39 10 65 0 35 -6 52 -24 70 -36 36 -69 40 -119 16 -59 -29 -103 -28
-110 2 -9 33 -10 223 -3 236 4 6 27 21 51 34 61 30 148 104 178 150 76 116 58
444 -31 568 -37 52 -77 76 -159 97 -38 10 -78 25 -87 35 -10 10 -33 17 -52 17
-28 0 -35 4 -33 18 8 79 -18 112 -88 111 -27 0 -65 -7 -85 -15z m35 -311 c-7
-2 -19 -2 -25 0 -7 3 -2 5 12 5 14 0 19 -2 13 -5z m-113 -143 c-8 -5 -19 -10
-25 -10 -5 0 -3 5 5 10 8 5 20 10 25 10 6 0 3 -5 -5 -10z m318 -26 c3 -32 -16
-57 -54 -68 -30 -9 -74 28 -74 63 0 39 7 42 70 39 53 -3 55 -4 58 -34z m-213
2 c13 -19 14 -28 4 -50 -22 -47 -103 -48 -115 -1 -9 36 1 53 38 64 50 14 56
13 73 -13z m-145 11 c0 -2 -10 -12 -22 -23 l-23 -19 19 23 c18 21 26 27 26 19z
m-53 -99 c-3 -8 -6 -5 -6 6 -1 11 2 17 5 13 3 -3 4 -12 1 -19z"/>
<path d="M984 1126 c-6 -17 2 -36 17 -36 12 0 12 37 -1 45 -6 3 -13 -1 -16 -9z"/>
<path d="M784 1105 c-9 -23 14 -45 26 -25 5 8 8 19 7 24 -6 17 -27 18 -33 1z"/>
</g>
</svg>
